<svg id="Слой_1" data-name="Слой 1" xmlns="http://www.w3.org/2000/svg" viewBox="0 0 232.23 31.98"><defs><style>.cls-1{fill:#fff;stroke:#c3b299;stroke-miterlimit:10;stroke-width:3.98px;}</style></defs><title>wavebeige</title><path class="cls-1" d="M26.71,141.27s14.29,31.62,28.58,0" transform="translate(-24.9 -125.33)"/><path class="cls-1" d="M55.29,141.38s14.28-31.62,28.57,0" transform="translate(-24.9 -125.33)"/><path class="cls-1" d="M83.86,141.27s14.29,31.62,28.58,0" transform="translate(-24.9 -125.33)"/><path class="cls-1" d="M112.44,141.38s14.28-31.62,28.57,0" transform="translate(-24.9 -125.33)"/><path class="cls-1" d="M141,141.27s14.29,31.62,28.58,0" transform="translate(-24.9 -125.33)"/><path class="cls-1" d="M169.59,141.38s14.28-31.62,28.57,0" transform="translate(-24.9 -125.33)"/><path class="cls-1" d="M198.16,141.27s14.29,31.62,28.58,0" transform="translate(-24.9 -125.33)"/><path class="cls-1" d="M226.74,141.38s14.29-31.62,28.57,0" transform="translate(-24.9 -125.33)"/></svg>